<?xml version="1.0" standalone="no"?>
<!DOCTYPE svg PUBLIC "-//W3C//DTD SVG 1.1//EN" "http://www.w3.org/Graphics/SVG/1.1/DTD/svg11.dtd" >
<svg>
<metadata>
Created by FontForge 20090914 at Sun Sep 18 16:10:20 2022
 By www-data
&#194;&#169; Copyright SoftMaker Software GmbH and its licensors
</metadata>
<defs>
<font id="M651Deco" horiz-adv-x="465" >
  <font-face 
    font-family="M651-Deco"
    font-weight="400"
    font-stretch="normal"
    units-per-em="1000"
    panose-1="0 0 4 0 0 0 0 0 0 0"
    ascent="800"
    descent="-200"
    x-height="700"
    cap-height="700"
    bbox="-152 -296 1134 925"
    underline-thickness="40"
    underline-position="-130"
    unicode-range="U+0020-U+2215"
  />
<missing-glyph horiz-adv-x="500" 
d="M31 0v925h438v-925h-438zM438 31v863h-376v-863h376z" />
    <glyph glyph-name=".notdef" horiz-adv-x="500" 
d="M31 0v925h438v-925h-438zM438 31v863h-376v-863h376z" />
    <glyph glyph-name="space" unicode=" " horiz-adv-x="271" 
 />
    <glyph glyph-name="exclam" unicode="!" horiz-adv-x="349" 
d="M256 487c0 -36.667 -6 -84.999 -18 -144.999l-30 -144l-68 -1l-29 145c-12 59.333 -18 107.666 -18 144.999v213h163v-213zM256 0.000976562h-163v136h163v-136z" />
    <glyph glyph-name="quotedbl" unicode="&#x22;" horiz-adv-x="426" 
d="M268 434l-25 266h118l-24 -266h-69zM90 434l-25 266h118l-24 -266h-69z" />
    <glyph glyph-name="numbersign" unicode="#" horiz-adv-x="582" 
d="M506 220h-99l-31 -220h-89l30 220h-81l-31 -220h-87l30 220h-97v94h111l12 85h-96v95h108l29 206h87l-28 -206h81l29 206h89l-29 -206h88v-95h-101l-11 -85h86v-94zM261 399l-12 -85h81l13 85h-82z" />
    <glyph glyph-name="dollar" unicode="$" horiz-adv-x="446" 
d="M309 700l107 -105v-122h-143v94h-100v-142l141 -11l111 -100v-212l-111 -102h-52v-75h-85v75h-45l-112 102v123h153v-93h100v143l-141 10l-112 99v211l112 105h45v71h85v-71h47z" />
    <glyph glyph-name="percent" unicode="%" horiz-adv-x="874" 
d="M364 0h-75l225 700h71zM336 330l-69 -67h-125l-69 67v301l69 69h125l69 -69v-301zM801 67l-69 -67h-125l-69 67v301l69 69h125l69 -69v-301zM181 608v-254h47v254h-47zM646 346v-254h47v254h-47z" />
    <glyph glyph-name="ampersand" unicode="&#x26;" horiz-adv-x="621" 
d="M191 0l-102 102v182l93 66l-84 68v180l98 102h162l96 -102v-122l-68 -77l41 -63l22 40h140l-89 -157l138 -219h-170l-49 80l-46 -80h-182zM246 567v-146h63v146h-63zM315 133l35 64l-61 104h-43v-168h69z" />
    <glyph glyph-name="quotesingle" unicode="'" horiz-adv-x="251" 
d="M92 434l-25 266h118l-24 -266h-69z" />
    <glyph glyph-name="parenleft" unicode="(" horiz-adv-x="329" 
d="M282 643h-121v-586h121v-82h-106l-128 119v512l128 119h106v-82z" />
    <glyph glyph-name="parenright" unicode=")" horiz-adv-x="329" 
d="M154 725l127 -119v-512l-127 -119h-106v82h120v586h-120v82h106z" />
    <glyph glyph-name="asterisk" unicode="*" 
d="M404 545h-105l74 -74l-38 -38l-75 73v-105h-55v105l-75 -73l-38 38l74 74h-105v57h105l-74 74l38 38l75 -73v105h55v-105l75 73l38 -38l-74 -74h105v-57z" />
    <glyph glyph-name="plus" unicode="+" horiz-adv-x="582" 
d="M234 593h115v-186h188v-115h-188v-193h-115v193h-189v115h189v186z" />
    <glyph glyph-name="comma" unicode="," horiz-adv-x="232" 
d="M197 28l-88 -134l-56 37l50 69h-69v136h163v-108z" />
    <glyph glyph-name="hyphen" unicode="-" horiz-adv-x="173" 
d="M174 311h-175v94h175v-94z" />
    <glyph glyph-name="period" unicode="." horiz-adv-x="232" 
d="M197 0h-163v136h163v-136z" />
    <glyph glyph-name="slash" unicode="/" horiz-adv-x="582" 
d="M522 647l-363 -647l-99 53l363 647z" />
    <glyph glyph-name="zero" unicode="0" horiz-adv-x="446" 
d="M419 102l-102 -102h-183l-107 102v496l107 102h175l110 -102v-496zM190 567v-434h66v434h-66z" />
    <glyph glyph-name="one" unicode="1" horiz-adv-x="446" 
d="M308 0h-162.999v564h-65v98c77.333 24 121.666 36.667 132.999 38h95v-700z" />
    <glyph glyph-name="two" unicode="2" horiz-adv-x="446" 
d="M189 473h-153v125l102 102h172l106 -102v-191l-227 -212v-62h227v-133h-385v244l226 217v106h-68v-94z" />
    <glyph glyph-name="three" unicode="3" horiz-adv-x="446" 
d="M406 431l-91 -77l91 -73v-179l-106 -102h-174l-102 102v126h154v-95h66v154h-85v134h85v146h-66v-89h-154v120l102 102h167l113 -102v-167z" />
    <glyph glyph-name="four" unicode="4" horiz-adv-x="446" 
d="M380 262h66v-123h-66v-139h-154v139h-185l-47 129l238 432h148v-438zM226 475l-108 -213h108v213z" />
    <glyph glyph-name="five" unicode="5" horiz-adv-x="446" 
d="M136 0l-105 102v136h163v-105h60v167l-105 3l-112 101v296h336v-133h-181v-127l122 -4l103 -96v-238l-103 -102h-178z" />
    <glyph glyph-name="six" unicode="6" horiz-adv-x="446" 
d="M416 102l-104 -102h-176l-105 102v496l105 102h173l107 -102v-124h-158v93h-67v-150h125l100 -92v-223zM191 283v-150h67v150h-67z" />
    <glyph glyph-name="seven" unicode="7" horiz-adv-x="446" 
d="M409 567l-196 -567h-170l216 567h-79v-67h-141v200h370v-133z" />
    <glyph glyph-name="eight" unicode="8" horiz-adv-x="446" 
d="M329 359l88 -70v-187l-104 -102h-176l-108 102v187l84 70l-70 70v169l97 102h154l109 -102v-169zM190 567v-146h66v146h-66zM190 287v-154h66v154h-66z" />
    <glyph glyph-name="nine" unicode="9" horiz-adv-x="446" 
d="M413 102l-106 -102h-176l-105 102v124h158v-93h66v144h-127l-97 91v230l102 102h179l106 -102v-496zM184 567v-156h66v156h-66z" />
    <glyph glyph-name="colon" unicode=":" horiz-adv-x="232" 
d="M197 354h-163v137h163v-137zM197 0h-163v136h163v-136z" />
    <glyph glyph-name="semicolon" unicode=";" horiz-adv-x="232" 
d="M197 28l-88 -134l-56 37l50 69h-69v136h163v-108zM197 354h-163v137h163v-137z" />
    <glyph glyph-name="less" unicode="&#x3c;" horiz-adv-x="582" 
d="M540 82l-497 220v98l497 222v-111l-351 -161l351 -158v-110z" />
    <glyph glyph-name="equal" unicode="=" horiz-adv-x="582" 
d="M537 387h-492v115h492v-115zM537 198h-492v114h492v-114z" />
    <glyph glyph-name="greater" unicode="&#x3e;" horiz-adv-x="582" 
d="M394 350l-351 161v111l497 -222v-98l-497 -220v110z" />
    <glyph glyph-name="question" unicode="?" horiz-adv-x="485" 
d="M429 422l-105 -100v-125h-162v143l107 101v126h-56v-128h-157v159l106 102h157l110 -102v-176zM324 0h-162v136h162v-136z" />
    <glyph glyph-name="at" unicode="@" horiz-adv-x="718" 
d="M647 147c-70 -98 -159.329 -147 -267.996 -147c-98 -0 -180.167 33.833 -246.5 101.5s-99.5 150.5 -99.5 248.5c0 97.333 32.667 180 98 248s146.666 102 243.999 102c80 0 151.5 -27.5 214.5 -82.5s94.5 -122.167 94.5 -201.5c0 -64 -20.333 -123.667 -61 -179
c-44 -60 -98 -90 -162 -90c-32.667 0 -50.334 15.667 -53.001 47c-26.667 -28.667 -57 -43 -91 -43c-44 0 -79.667 16 -107 48c-25.333 32.667 -38 71.667 -38 117c0 56 16.667 105.167 50 147.5s77.666 63.5 132.999 63.5c47.333 0 83.333 -17.333 108 -52l8 46h87
l-29 -145c-12 -60 -18 -108.333 -18 -145l3 -9l10 -4c28.667 0 53 21.667 73 65c7.33301 16 13 32.833 17 50.5s6 35.167 6 52.5c0 74.667 -22.333 134.167 -67 178.5s-105.334 66.5 -182.001 66.5c-77.333 0 -141.666 -27.333 -192.999 -82s-77 -121 -77 -199
c0 -82 26.667 -149.333 80 -202s121.666 -79 204.999 -79c61.333 0 120 26 176 78h85zM347.004 250c25.333 0 46.499 10.167 63.499 30.5s25.5 43.833 25.5 70.5c0 12 -1.33301 22 -4 30s-8 16.333 -16 25c-12 15.333 -29.333 23 -52 23
c-23.333 0 -43.166 -10.667 -59.499 -32s-24.5 -44 -24.5 -68c0 -22 6 -40.667 18 -56s28.333 -23 49 -23z" />
    <glyph glyph-name="A" unicode="A" horiz-adv-x="407" 
d="M423 0h-160l-14 129h-91l-14 -129h-159l99 700h234zM207 550h-13l-25 -288h68z" />
    <glyph glyph-name="B" unicode="B" 
d="M338 358l89 -68v-188l-106 -102h-283v700h283l93 -88v-185zM201 567v-146h64v146h-64zM201 287v-154h64v154h-64z" />
    <glyph glyph-name="C" unicode="C" horiz-adv-x="446" 
d="M421 430h-159v137h-67v-434h67v167h159v-198l-107 -102h-166l-116 102v496l106 102h176l107 -102v-168z" />
    <glyph glyph-name="D" unicode="D" 
d="M431 102l-104 -102h-286v700h280l110 -102v-496zM203 567v-434h66v434h-66z" />
    <glyph glyph-name="E" unicode="E" horiz-adv-x="349" 
d="M334 567h-135v-130h113v-133h-113v-171h139v-133h-302v700h298v-133z" />
    <glyph glyph-name="F" unicode="F" horiz-adv-x="349" 
d="M349 567h-151v-130h122v-133h-122v-304h-163v700h314v-133z" />
    <glyph glyph-name="G" unicode="G" horiz-adv-x="446" 
d="M422 436h-163v131h-72v-434h72v100h-40v133h203v-264l-107 -102h-178l-113 102v496l108 102h180l110 -102v-162z" />
    <glyph glyph-name="H" unicode="H" 
d="M428 0h-162v283h-65v-283h-163v700h163v-283h65v283h162v-700z" />
    <glyph glyph-name="I" unicode="I" horiz-adv-x="251" 
d="M206 0h-162v700h162v-700z" />
    <glyph glyph-name="J" unicode="J" horiz-adv-x="387" 
d="M358 102l-107 -102h-148l-109 102v177h149v-146h53v567h162v-598z" />
    <glyph glyph-name="K" unicode="K" horiz-adv-x="485" 
d="M202 407l105 293h167l-140 -327l161 -373h-176l-117 294v-294h-163v700h163v-293z" />
    <glyph glyph-name="L" unicode="L" horiz-adv-x="349" 
d="M202 133h146v-133h-308v700h162v-567z" />
    <glyph glyph-name="M" unicode="M" horiz-adv-x="582" 
d="M543 0h-149v443h-5l-67 -443h-61l-67 443h-5v-443h-149v700h191l56 -338h13l53 338h190v-700z" />
    <glyph glyph-name="N" unicode="N" 
d="M429 0h-135l-104 334v-334h-153v700h136l103 -331v331h153v-700z" />
    <glyph glyph-name="O" unicode="O" 
d="M428 102l-103 -102h-180l-107 102v496l107 102h173l110 -102v-496zM201 567v-434h65v434h-65z" />
    <glyph glyph-name="P" unicode="P" horiz-adv-x="426" 
d="M421 336l-109 -98h-105v-238h-162v700h267l109 -102v-262zM207 567v-196h58v196h-58z" />
    <glyph glyph-name="Q" unicode="Q" 
d="M430 147l-76 -69h76v-78h-289l-107 102v496l107 102h181l108 -102v-451zM197 567v-434h71v434h-71z" />
    <glyph glyph-name="R" unicode="R" 
d="M427 414l-80 -66l80 -68v-280h-157v278h-66v-278h-162v700h277l108 -102v-184zM204 567v-155h66v155h-66z" />
    <glyph glyph-name="S" unicode="S" horiz-adv-x="446" 
d="M305 700l109 -102v-125h-158v94h-64v-141l116 -9l111 -102v-213l-106 -102h-179l-105 102v124h163v-93h64v145l-114 8l-113 102v210l106 102h170z" />
    <glyph glyph-name="T" unicode="T" horiz-adv-x="349" 
d="M346 567h-91v-567h-163v567h-90v133h344v-133z" />
    <glyph glyph-name="U" unicode="U" 
d="M429 102l-104 -102h-181l-108 102v598h163v-567h68v567h162v-598z" />
    <glyph glyph-name="V" unicode="V" horiz-adv-x="407" 
d="M331 0h-245l-92 700h163l44 -532h9l40 532h163z" />
    <glyph glyph-name="W" unicode="W" horiz-adv-x="524" 
d="M420 0h-117l-34 299h-14l-34 -299h-118l-119 700h154l50 -345l40 345h68l40 -345l50 345h153z" />
    <glyph glyph-name="X" unicode="X" horiz-adv-x="426" 
d="M309 365l131 -365h-164l-65 201l-58 -201h-165l132 365l-128 335h166l53 -194l53 194h167z" />
    <glyph glyph-name="Y" unicode="Y" horiz-adv-x="426" 
d="M294 0l-162.999 0.00195312l1 218c0 65.333 -17 147.666 -51 246.999l-88 235h163l57 -249l58 249h162l-48 -138l-50 -138c-10.667 -30.667 -19.334 -59.5 -26.001 -86.5s-10 -50.833 -10 -71.5c-1.33301 -43.333 -2.5 -90.333 -3.5 -141s-1.5 -92.334 -1.5 -125.001z
" />
    <glyph glyph-name="Z" unicode="Z" horiz-adv-x="387" 
d="M175 133h188v-133h-288l-91 123l230 444h-169v133h261l98 -125z" />
    <glyph glyph-name="bracketleft" unicode="[" horiz-adv-x="329" 
d="M280 647h-119v-594h119v-77h-232v748h232v-77z" />
    <glyph glyph-name="backslash" unicode="\" horiz-adv-x="582" 
d="M159 700l363 -647l-99 -53l-363 647z" />
    <glyph glyph-name="bracketright" unicode="]" horiz-adv-x="329" 
d="M280 724v-748h-231v77h118v594h-118v77h231z" />
    <glyph glyph-name="asciicircum" unicode="^" horiz-adv-x="582" 
d="M56 331l176 369h118l176 -369l-103 -46l-132 271l-132 -271z" />
    <glyph glyph-name="underscore" unicode="_" horiz-adv-x="991" 
d="M-2 -187v96h995v-96h-995z" />
    <glyph glyph-name="grave" unicode="`" horiz-adv-x="368" 
d="M297 785l-34 -50l-175 78l-20 45l40 63l48 -4z" />
    <glyph glyph-name="a" unicode="a" horiz-adv-x="407" 
d="M423 0h-160l-14 129h-91l-14 -129h-159l99 700h234zM207 550h-13l-25 -288h68z" />
    <glyph glyph-name="b" unicode="b" 
d="M338 358l89 -68v-188l-106 -102h-283v700h283l93 -88v-185zM201 567v-146h64v146h-64zM201 287v-154h64v154h-64z" />
    <glyph glyph-name="c" unicode="c" horiz-adv-x="446" 
d="M421 430h-159v137h-67v-434h67v167h159v-198l-107 -102h-166l-116 102v496l106 102h176l107 -102v-168z" />
    <glyph glyph-name="d" unicode="d" 
d="M431 102l-104 -102h-286v700h280l110 -102v-496zM203 567v-434h66v434h-66z" />
    <glyph glyph-name="e" unicode="e" horiz-adv-x="349" 
d="M334 567h-135v-130h113v-133h-113v-171h139v-133h-302v700h298v-133z" />
    <glyph glyph-name="f" unicode="f" horiz-adv-x="349" 
d="M349 567h-151v-130h122v-133h-122v-304h-163v700h314v-133z" />
    <glyph glyph-name="g" unicode="g" horiz-adv-x="446" 
d="M422 436h-163v131h-72v-434h72v100h-40v133h203v-264l-107 -102h-178l-113 102v496l108 102h180l110 -102v-162z" />
    <glyph glyph-name="h" unicode="h" 
d="M428 0h-162v283h-65v-283h-163v700h163v-283h65v283h162v-700z" />
    <glyph glyph-name="i" unicode="i" horiz-adv-x="251" 
d="M206 0h-162v700h162v-700z" />
    <glyph glyph-name="j" unicode="j" horiz-adv-x="387" 
d="M358 102l-107 -102h-148l-109 102v177h149v-146h53v567h162v-598z" />
    <glyph glyph-name="k" unicode="k" horiz-adv-x="485" 
d="M202 407l105 293h167l-140 -327l161 -373h-176l-117 294v-294h-163v700h163v-293z" />
    <glyph glyph-name="l" unicode="l" horiz-adv-x="349" 
d="M202 133h146v-133h-308v700h162v-567z" />
    <glyph glyph-name="m" unicode="m" horiz-adv-x="582" 
d="M543 0h-149v443h-5l-67 -443h-61l-67 443h-5v-443h-149v700h191l56 -338h13l53 338h190v-700z" />
    <glyph glyph-name="n" unicode="n" 
d="M429 0h-135l-104 334v-334h-153v700h136l103 -331v331h153v-700z" />
    <glyph glyph-name="o" unicode="o" 
d="M428 102l-103 -102h-180l-107 102v496l107 102h173l110 -102v-496zM201 567v-434h65v434h-65z" />
    <glyph glyph-name="p" unicode="p" horiz-adv-x="426" 
d="M421 336l-109 -98h-105v-238h-162v700h267l109 -102v-262zM207 567v-196h58v196h-58z" />
    <glyph glyph-name="q" unicode="q" 
d="M430 147l-76 -69h76v-78h-289l-107 102v496l107 102h181l108 -102v-451zM197 567v-434h71v434h-71z" />
    <glyph glyph-name="r" unicode="r" 
d="M427 414l-80 -66l80 -68v-280h-157v278h-66v-278h-162v700h277l108 -102v-184zM204 567v-155h66v155h-66z" />
    <glyph glyph-name="s" unicode="s" horiz-adv-x="446" 
d="M305 700l109 -102v-125h-158v94h-64v-141l116 -9l111 -102v-213l-106 -102h-179l-105 102v124h163v-93h64v145l-114 8l-113 102v210l106 102h170z" />
    <glyph glyph-name="t" unicode="t" horiz-adv-x="349" 
d="M346 567h-91v-567h-163v567h-90v133h344v-133z" />
    <glyph glyph-name="u" unicode="u" 
d="M429 102l-104 -102h-181l-108 102v598h163v-567h68v567h162v-598z" />
    <glyph glyph-name="v" unicode="v" horiz-adv-x="407" 
d="M331 0h-245l-92 700h163l44 -532h9l40 532h163z" />
    <glyph glyph-name="w" unicode="w" horiz-adv-x="524" 
d="M420 0h-117l-34 299h-14l-34 -299h-118l-119 700h154l50 -345l40 345h68l40 -345l50 345h153z" />
    <glyph glyph-name="x" unicode="x" horiz-adv-x="426" 
d="M309 365l131 -365h-164l-65 201l-58 -201h-165l132 365l-128 335h166l53 -194l53 194h167z" />
    <glyph glyph-name="y" unicode="y" horiz-adv-x="426" 
d="M294 0l-162.999 0.00195312l1 218c0 65.333 -17 147.666 -51 246.999l-88 235h163l57 -249l58 249h162l-48 -138l-50 -138c-10.667 -30.667 -19.334 -59.5 -26.001 -86.5s-10 -50.833 -10 -71.5c-1.33301 -43.333 -2.5 -90.333 -3.5 -141s-1.5 -92.334 -1.5 -125.001z
" />
    <glyph glyph-name="z" unicode="z" horiz-adv-x="387" 
d="M175 133h188v-133h-288l-91 123l230 444h-169v133h261l98 -125z" />
    <glyph glyph-name="braceleft" unicode="{" horiz-adv-x="329" 
d="M136 349c52 -12 78 -51 78 -117l-4 -61l-3 -62c0 -70 27.333 -114.333 82 -133h-43c-50 0 -85 12.333 -105 37c-16 19.333 -24 49 -24 89l3 60l3 60c0 70 -27 112 -81 126c52.667 7.33301 79 45 79 113l-3 63l-3 65c0 41.333 8 73 24 95c20.667 26.667 57 40 109 40h42
c-54.667 -17.333 -82 -59.333 -82 -126l4 -66l4 -65c0 -64 -26.667 -103.333 -80 -118z" />
    <glyph glyph-name="bar" unicode="|" horiz-adv-x="582" 
d="M233 700h117v-700h-117v700z" />
    <glyph glyph-name="braceright" unicode="}" horiz-adv-x="329" 
d="M39 724h41.001c51.333 0 87.666 -13 108.999 -39c16 -20 24 -51.333 24 -94l-3 -62l-3 -60c0 -70 27.333 -110.333 82 -121c-54.667 -10 -82 -50 -82 -120l3 -61l3 -60c0 -41.333 -8 -72 -24 -92c-20 -26 -56.667 -39 -110 -39h-42c55.333 12 83 53.667 83 125l-3 61
l-3 62c0 68.667 26.333 110 79 124c-52.667 12 -79 51.333 -79 118l3 64l4 65c0 70 -27.333 113 -82 129z" />
    <glyph glyph-name="asciitilde" unicode="~" horiz-adv-x="582" 
d="M538 379c-26 -40 -45.333 -66.333 -58 -79c-24 -24 -53 -36 -87 -36c-25.333 0 -60.833 10.667 -106.5 32s-77.167 32 -94.5 32c-30 0 -58 -26.667 -84 -80l-63 73c13.333 32.667 32 60 56 82c28.667 26.667 58.334 40 89.001 40c28.667 0 65.667 -10.667 111 -32
c23.333 -10.667 42.666 -18.667 57.999 -24s27.333 -8 36 -8c22.667 0 49 24 79 72z" />
    <glyph glyph-name="nonbreakingspace" unicode="&#xa0;" horiz-adv-x="271" 
 />
    <glyph glyph-name="exclamdown" unicode="&#xa1;" horiz-adv-x="349" 
d="M93 -295v213.999c0 36.667 6 84.667 18 144c4 24 8.33301 48 13 72l16 72h68l30 -144c12 -59.333 18 -107.666 18 -144.999v-213h-163zM256 268.999h-163v136h163v-136z" />
    <glyph glyph-name="cent" unicode="&#xa2;" horiz-adv-x="446" 
d="M422 401h-153v94h-93v-287h93v107h153v-138l-103 -102h-55v-75h-79v75h-51l-112 102v348l102 103h61v72h79v-72h55l103 -103v-124z" />
    <glyph glyph-name="sterling" unicode="&#xa3;" horiz-adv-x="524" 
d="M373 700l101 -102v-148h-157v117h-74v-157h68v-86h-68v-191h92v161h156v-192l-109 -102h-349v133h52v191h-52v86h52v188l102 102h186z" />
    <glyph glyph-name="currency" unicode="&#xa4;" horiz-adv-x="521" 
d="M394 309h-126v-176h67v142h159v-173l-107 -102h-166l-116 102v207h-78l36 85h42v204l106 102h176l107 -102v-168h-159v137h-67v-173h162z" />
    <glyph glyph-name="yen" unicode="&#xa5;" horiz-adv-x="504" 
d="M342 308h131v-85h-135v-223h-165v223h-135v85h131l-139 392h162l61 -250l58 250h162z" />
    <glyph glyph-name="brokenbar" unicode="&#xa6;" horiz-adv-x="582" 
d="M45 407h492v-115h-492v115z" />
    <glyph glyph-name="dieresis" unicode="&#xa8;" horiz-adv-x="426" 
d="M364 765h-128v126h128v-126zM197 765h-129v126h129v-126z" />
    <glyph glyph-name="copyright" unicode="&#xa9;" horiz-adv-x="718" 
d="M21 350c0 96 32.8311 178.333 98.498 247s145.834 103 240.501 103c94 0 173.833 -34.667 239.5 -104s98.5 -151.333 98.5 -246c0 -94 -32.833 -175.833 -98.5 -245.5s-145.5 -104.5 -239.5 -104.5c-93.333 0 -173.166 34.667 -239.499 104s-99.5 151.333 -99.5 246z
M632.998 350c0 74.667 -26.834 140.5 -80.501 197.5s-117.5 85.5 -191.5 85.5c-75.333 0 -139.833 -28.167 -193.5 -84.5s-80.5 -122.5 -80.5 -198.5s26.5 -142.167 79.5 -198.5s117.5 -84.5 193.5 -84.5c74.667 0 138.834 28.333 192.501 85s80.5 122.667 80.5 198z
M532.997 289c0 -38.667 -15.999 -71.332 -47.999 -97.999s-68.667 -40 -110 -40c-56 0 -102 20 -138 60c-33.333 37.333 -50 85 -50 143s16.667 106.167 50 144.5s78.666 57.5 135.999 57.5c41.333 0 76.333 -11.833 105 -35.5s47 -56.5 55 -98.5h-78
c-4 20 -13.833 36.5 -29.5 49.5s-33.5 19.5 -53.5 19.5c-34.667 0 -62 -14 -82 -42c-16.667 -25.333 -25 -56.333 -25 -93c0 -35.333 9.5 -67.333 28.5 -96s46.167 -43 81.5 -43c19.333 0 37.5 7.16699 54.5 21.5s25.5 31.166 25.5 50.499h78z" />
    <glyph glyph-name="guillemotleft" unicode="&#xab;" horiz-adv-x="407" 
d="M196 545l-50 -188c0 -4 4 -21.167 12 -51.5s20.667 -75.5 38 -135.5l-51 -29l-91 141v152l91 141zM355 544l-50 -188c0 -4 4 -21.167 12 -51.5s20.667 -75.5 38 -135.5l-52 -29l-91 141v152l91 141z" />
    <glyph glyph-name="logicalnot" unicode="&#xac;" horiz-adv-x="582" 
d="M429 399h-391v115h506v-298h-115v183z" />
    <glyph glyph-name="registered" unicode="&#xae;" horiz-adv-x="718" 
d="M21 350c0 96 32.8311 178.333 98.498 247s145.834 103 240.501 103c94 0 173.833 -34.667 239.5 -104s98.5 -151.333 98.5 -246c0 -94 -32.833 -175.833 -98.5 -245.5s-145.5 -104.5 -239.5 -104.5c-93.333 0 -173.166 34.667 -239.499 104s-99.5 151.333 -99.5 246z
M632.998 350c0 76.667 -26.5 143 -79.5 199s-117.167 84 -192.5 84s-139.833 -28.167 -193.5 -84.5s-80.5 -122.5 -80.5 -198.5s26.5 -142.167 79.5 -198.5s117.833 -84.5 194.5 -84.5c75.333 0 139.5 28.167 192.5 84.5s79.5 122.5 79.5 198.5zM528.998 159h-85l-81 159
h-70v-159h-73v378h177c47.333 0 82 -7 104 -21c25.333 -17.333 38 -49 38 -95c0 -32 -7.66699 -56 -23 -72s-40.333 -26 -75 -30zM398.998 377c44.667 0 67 18.333 67 55c0 33.333 -26.333 50 -79 50h-94v-105h106z" />
    <glyph glyph-name="macron" unicode="&#xaf;" 
d="M389 789h-321v77h321v-77z" />
    <glyph glyph-name="plusminus" unicode="&#xb1;" horiz-adv-x="532" 
d="M239 399v231h55v-231h231v-55h-231v-231h-55v231h-231v55h231zM8 0v55h517v-55h-517z" />
    <glyph glyph-name="acute" unicode="&#xb4;" horiz-adv-x="368" 
d="M257 921l40 -63l-21 -45l-175 -78l-33 50l140 132z" />
    <glyph glyph-name="mu" unicode="&#xb5;" horiz-adv-x="559" 
d="M143 489l0.000976562 -323.998c0 -75.333 31.667 -113 95 -113c14 0 35 9 63 27s42 34 42 48v362h85v-374c0 -20 4.16699 -38.5 12.5 -55.5s21.166 -25.5 38.499 -25.5c16 0 28.333 7.66699 37 23l15 44h21c-18 -78 -59 -117 -123 -117c-44 0 -72.333 31.333 -85 94
c-44 -63.333 -97.333 -95 -160 -95c-15.333 0 -31.333 5.33301 -48 16l-42 31l1 -20c0 -18 5 -44.833 15 -80.5s15 -62.834 15 -81.501c0 -14.667 -4.16699 -29.167 -12.5 -43.5s-19.833 -21.5 -34.5 -21.5c-14 0 -25.5 6.66699 -34.5 20s-13.5 27.666 -13.5 42.999
s2 33 6 53s10.667 44.333 20 73l4 171l-1 173l-2 173h86z" />
    <glyph glyph-name="paragraph" unicode="&#xb6;" horiz-adv-x="656" 
d="M530 695v-53.001h-33v-805h-57v805h-142v-805h-57v477c-46.667 6.66699 -84 27.334 -112 62.001s-42 76 -42 124c0 61.333 21 110 63 146c38.667 32.667 90 49 154 49h226z" />
    <glyph glyph-name="periodcentered" unicode="&#xb7;" horiz-adv-x="446" 
d="M305 281h-163v137h163v-137z" />
    <glyph glyph-name="periodcentered" unicode="&#x2219;" horiz-adv-x="446" 
d="M305 281h-163v137h163v-137z" />
    <glyph glyph-name="cedilla" unicode="&#xb8;" horiz-adv-x="271" 
d="M146 -25h22l32 -32v-107l-39 -38h-93v57h65v63h-18l-31 31v53h62v-27z" />
    <glyph glyph-name="guillemotright" unicode="&#xbb;" horiz-adv-x="407" 
d="M353 434v-152l-91 -141l-51 29l36.5 131c8.33301 31.333 12.833 50 13.5 56l-50 188l51 30zM195 434v-152l-91 -141l-52 29l36.5 131c8.33301 31.333 12.833 50 13.5 56l-50 188l51 30z" />
    <glyph glyph-name="questiondown" unicode="&#xbf;" horiz-adv-x="485" 
d="M56 -17l106 99v126h162v-143l-107 -102v-126h56v128h156v-158l-106 -103h-156l-111 103v176zM324 269h-162v136h162v-136z" />
    <glyph glyph-name="Agrave" unicode="&#xc0;" horiz-adv-x="407" 
d="M423 0h-160l-14 129h-91l-14 -129h-159l99 700h234zM207 550h-13l-25 -288h68zM317 785l-34 -50l-176 78l-20 45l40 63l49 -4z" />
    <glyph glyph-name="Aacute" unicode="&#xc1;" horiz-adv-x="407" 
d="M423 0h-160l-14 129h-91l-14 -129h-159l99 700h234zM207 550h-13l-25 -288h68zM276 921l41 -63l-21 -45l-176 -78l-33 50l140 132z" />
    <glyph glyph-name="Acircumflex" unicode="&#xc2;" horiz-adv-x="407" 
d="M423 0h-160l-14 129h-91l-14 -129h-159l99 700h234zM207 550h-13l-25 -288h68zM208 806l-152 -49l-27 50l106 91h146l107 -91l-28 -50z" />
    <glyph glyph-name="Atilde" unicode="&#xc3;" horiz-adv-x="407" 
d="M423 0h-160l-14 129h-91l-14 -129h-159l99 700h234zM207 550h-13l-25 -288h68zM222 757l-70 54l-69 -49l-45 40l134 96l72 -54l70 51l47 -41z" />
    <glyph glyph-name="Adieresis" unicode="&#xc4;" horiz-adv-x="407" 
d="M423 0h-160l-14 129h-91l-14 -129h-159l99 700h234zM207 550h-13l-25 -288h68zM354 765h-128v126h128v-126zM187 765h-129v126h129v-126z" />
    <glyph glyph-name="Aring" unicode="&#xc5;" horiz-adv-x="407" 
d="M423 0h-160l-14 129h-91l-14 -129h-159l99 700h234zM207 550h-13l-25 -288h68zM295 781l-45 -45h-89l-44 45v91l44 44h89l45 -44v-91zM167 864v-75h77v75h-77z" />
    <glyph glyph-name="AE" unicode="&#xc6;" horiz-adv-x="582" 
d="M564 567h-138v-132h117v-133h-117v-169h145v-133h-298v131h-114l-31 -131h-158l201 700h393v-133zM273 567h-13l-71 -305h84v305z" />
    <glyph glyph-name="Ccedilla" unicode="&#xc7;" horiz-adv-x="446" 
d="M421 430h-159v137h-67v-434h67v167h159v-198l-107 -102h-166l-116 102v496l106 102h176l107 -102v-168zM234 -25h21l32 -32v-107l-38 -38h-93v57h65v63h-18l-32 31v53h63v-27z" />
    <glyph glyph-name="Egrave" unicode="&#xc8;" horiz-adv-x="349" 
d="M334 567h-135v-130h113v-133h-113v-171h139v-133h-302v700h298v-133zM287 785l-34 -50l-175 78l-20 45l40 63l48 -4z" />
    <glyph glyph-name="Eacute" unicode="&#xc9;" horiz-adv-x="349" 
d="M334 567h-135v-130h113v-133h-113v-171h139v-133h-302v700h298v-133zM247 921l40 -63l-21 -45l-175 -78l-33 50l140 132z" />
    <glyph glyph-name="Ecircumflex" unicode="&#xca;" horiz-adv-x="349" 
d="M334 567h-135v-130h113v-133h-113v-171h139v-133h-302v700h298v-133zM179 806l-152 -49l-27 50l106 91h146l107 -91l-29 -50z" />
    <glyph glyph-name="Edieresis" unicode="&#xcb;" horiz-adv-x="349" 
d="M334 567h-135v-130h113v-133h-113v-171h139v-133h-302v700h298v-133zM325 765h-128v126h128v-126zM158 765h-129v126h129v-126z" />
    <glyph glyph-name="Igrave" unicode="&#xcc;" horiz-adv-x="251" 
d="M206 0h-162v700h162v-700zM239 785l-34 -50l-176 78l-19 45l39 63l49 -4z" />
    <glyph glyph-name="Iacute" unicode="&#xcd;" horiz-adv-x="251" 
d="M206 0h-162v700h162v-700zM198 921l41 -63l-21 -45l-176 -78l-33 50l140 132z" />
    <glyph glyph-name="Icircumflex" unicode="&#xce;" horiz-adv-x="251" 
d="M206 0h-162v700h162v-700zM130 806l-152 -49l-27 50l106 91h146l107 -91l-28 -50z" />
    <glyph glyph-name="Idieresis" unicode="&#xcf;" horiz-adv-x="251" 
d="M206 0h-162v700h162v-700zM276 765h-128v126h128v-126zM109 765h-128v126h128v-126z" />
    <glyph glyph-name="Eth" unicode="&#xd0;" 
d="M41 700h280l110 -102v-496l-104 -102h-286v283h-43v134h43v283zM203 417h31v-134h-31v-150h66v434h-66v-150z" />
    <glyph glyph-name="Ntilde" unicode="&#xd1;" 
d="M429 0h-135l-104 334v-334h-153v700h136l103 -331v331h153v-700zM251 757l-70 54l-69 -49l-44 40l134 96l72 -54l70 51l46 -41z" />
    <glyph glyph-name="Ograve" unicode="&#xd2;" 
d="M428 102l-103 -102h-180l-107 102v496l107 102h173l110 -102v-496zM201 567v-434h65v434h-65zM346 785l-34 -50l-175 78l-20 45l39 63l49 -4z" />
    <glyph glyph-name="Oacute" unicode="&#xd3;" 
d="M428 102l-103 -102h-180l-107 102v496l107 102h173l110 -102v-496zM201 567v-434h65v434h-65zM305 921l41 -63l-21 -45l-175 -78l-33 50l140 132z" />
    <glyph glyph-name="Ocircumflex" unicode="&#xd4;" 
d="M428 102l-103 -102h-180l-107 102v496l107 102h173l110 -102v-496zM201 567v-434h65v434h-65zM238 806l-153 -49l-27 50l106 91h146l107 -91l-28 -50z" />
    <glyph glyph-name="Otilde" unicode="&#xd5;" 
d="M428 102l-103 -102h-180l-107 102v496l107 102h173l110 -102v-496zM201 567v-434h65v434h-65zM251 757l-70 54l-69 -49l-44 40l134 96l72 -54l70 51l46 -41z" />
    <glyph glyph-name="Odieresis" unicode="&#xd6;" 
d="M428 102l-103 -102h-180l-107 102v496l107 102h173l110 -102v-496zM201 567v-434h65v434h-65zM384 765h-129v126h129v-126zM216 765h-128v126h128v-126z" />
    <glyph glyph-name="Oslash" unicode="&#xd8;" horiz-adv-x="485" 
d="M446 102l-106 -102h-181l-48 45l-67 -130l-40 21l73 143l-23 23v496l105 102h181l36 -37l61 116l41 -21l-66 -129l34 -31v-496zM216 567l-1 -225l68 146v79h-67zM283 133v253l-67 -145v-108h67z" />
    <glyph glyph-name="Ugrave" unicode="&#xd9;" 
d="M429 102l-104 -102h-181l-108 102v598h163v-567h68v567h162v-598zM346 785l-34 -50l-175 78l-20 45l39 63l49 -4z" />
    <glyph glyph-name="Uacute" unicode="&#xda;" 
d="M429 102l-104 -102h-181l-108 102v598h163v-567h68v567h162v-598zM305 921l41 -63l-21 -45l-175 -78l-33 50l140 132z" />
    <glyph glyph-name="Ucircumflex" unicode="&#xdb;" 
d="M429 102l-104 -102h-181l-108 102v598h163v-567h68v567h162v-598zM238 806l-153 -49l-27 50l106 91h146l107 -91l-28 -50z" />
    <glyph glyph-name="Udieresis" unicode="&#xdc;" 
d="M429 102l-104 -102h-181l-108 102v598h163v-567h68v567h162v-598zM384 765h-129v126h129v-126zM216 765h-128v126h128v-126z" />
    <glyph glyph-name="Yacute" unicode="&#xdd;" horiz-adv-x="426" 
d="M294 0l-162.999 0.00195312l1 218c0 65.333 -17 147.666 -51 246.999l-88 235h163l57 -249l58 249h162l-48 -138l-50 -138c-10.667 -30.667 -19.334 -59.5 -26.001 -86.5s-10 -50.833 -10 -71.5c-1.33301 -43.333 -2.5 -90.333 -3.5 -141s-1.5 -92.334 -1.5 -125.001z
M276.001 921.002l41 -63l-21 -45l-176 -78l-33 50l140 132z" />
    <glyph glyph-name="germandbls" unicode="&#xdf;" horiz-adv-x="892" 
d="M305 700l109 -102v-125h-158v94h-64v-141l116 -9l111 -102v-213l-106 -102h-179l-105 102v124h163v-93h64v145l-114 8l-113 102v210l106 102h170zM751 700l109 -102v-125h-158v94h-64v-141l116 -9l111 -102v-213l-106 -102h-179l-105 102v124h163v-93h64v145l-114 8
l-113 102v210l106 102h170z" />
    <glyph glyph-name="agrave" unicode="&#xe0;" horiz-adv-x="407" 
d="M423 0h-160l-14 129h-91l-14 -129h-159l99 700h234zM207 550h-13l-25 -288h68zM276 921l41 -63l-21 -45l-176 -78l-33 50l140 132z" />
    <glyph glyph-name="aacute" unicode="&#xe1;" horiz-adv-x="407" 
d="M423 0h-160l-14 129h-91l-14 -129h-159l99 700h234zM207 550h-13l-25 -288h68zM317 785l-34 -50l-176 78l-20 45l40 63l49 -4z" />
    <glyph glyph-name="acircumflex" unicode="&#xe2;" horiz-adv-x="407" 
d="M423 0h-160l-14 129h-91l-14 -129h-159l99 700h234zM207 550h-13l-25 -288h68zM208 806l-152 -49l-27 50l106 91h146l107 -91l-28 -50z" />
    <glyph glyph-name="atilde" unicode="&#xe3;" horiz-adv-x="407" 
d="M423 0h-160l-14 129h-91l-14 -129h-159l99 700h234zM207 550h-13l-25 -288h68zM222 757l-70 54l-69 -49l-45 40l134 96l72 -54l70 51l47 -41z" />
    <glyph glyph-name="adieresis" unicode="&#xe4;" horiz-adv-x="407" 
d="M423 0h-160l-14 129h-91l-14 -129h-159l99 700h234zM207 550h-13l-25 -288h68zM354 765h-128v126h128v-126zM187 765h-129v126h129v-126z" />
    <glyph glyph-name="aring" unicode="&#xe5;" horiz-adv-x="407" 
d="M423 0h-160l-14 129h-91l-14 -129h-159l99 700h234zM207 550h-13l-25 -288h68zM295 781l-45 -45h-89l-44 45v91l44 44h89l45 -44v-91zM167 864v-75h77v75h-77z" />
    <glyph glyph-name="ae" unicode="&#xe6;" horiz-adv-x="582" 
d="M564 567h-138v-132h117v-133h-117v-169h145v-133h-298v131h-114l-31 -131h-158l201 700h393v-133zM273 567h-13l-71 -305h84v305z" />
    <glyph glyph-name="ccedilla" unicode="&#xe7;" horiz-adv-x="446" 
d="M421 430h-159v137h-67v-434h67v167h159v-198l-107 -102h-166l-116 102v496l106 102h176l107 -102v-168zM234 -25h21l32 -32v-107l-38 -38h-93v57h65v63h-18l-32 31v53h63v-27z" />
    <glyph glyph-name="egrave" unicode="&#xe8;" horiz-adv-x="349" 
d="M334 567h-135v-130h113v-133h-113v-171h139v-133h-302v700h298v-133zM287 785l-34 -50l-175 78l-20 45l40 63l48 -4z" />
    <glyph glyph-name="eacute" unicode="&#xe9;" horiz-adv-x="349" 
d="M334 567h-135v-130h113v-133h-113v-171h139v-133h-302v700h298v-133zM247 921l40 -63l-21 -45l-175 -78l-33 50l140 132z" />
    <glyph glyph-name="ecircumflex" unicode="&#xea;" horiz-adv-x="349" 
d="M334 567h-135v-130h113v-133h-113v-171h139v-133h-302v700h298v-133zM179 806l-152 -49l-27 50l106 91h146l107 -91l-29 -50z" />
    <glyph glyph-name="edieresis" unicode="&#xeb;" horiz-adv-x="349" 
d="M334 567h-135v-130h113v-133h-113v-171h139v-133h-302v700h298v-133zM325 765h-128v126h128v-126zM158 765h-129v126h129v-126z" />
    <glyph glyph-name="igrave" unicode="&#xec;" horiz-adv-x="251" 
d="M206 0h-162v700h162v-700zM239 785l-34 -50l-176 78l-19 45l39 63l49 -4z" />
    <glyph glyph-name="iacute" unicode="&#xed;" horiz-adv-x="251" 
d="M206 0h-162v700h162v-700zM198 921l41 -63l-21 -45l-176 -78l-33 50l140 132z" />
    <glyph glyph-name="icircumflex" unicode="&#xee;" horiz-adv-x="251" 
d="M206 0h-162v700h162v-700zM130 806l-152 -49l-27 50l106 91h146l107 -91l-28 -50z" />
    <glyph glyph-name="idieresis" unicode="&#xef;" horiz-adv-x="251" 
d="M206 0h-162v700h162v-700zM276 765h-128v126h128v-126zM109 765h-128v126h128v-126z" />
    <glyph glyph-name="eth" unicode="&#xf0;" horiz-adv-x="479" 
d="M61 699c38.667 19.333 83 29.001 133 29.001c81.333 0 146.333 -38.333 195 -115c40.667 -66.667 61 -143 61 -229c0 -95.333 -17 -181 -51 -257c-44.667 -98.667 -108.334 -148 -191.001 -148c-55.333 0 -99.833 19.667 -133.5 59s-50.5 87 -50.5 143
c0 53.333 19.333 102 58 146s83.667 66 135 66c44.667 0 93.334 -21.667 146.001 -65c6.66699 34 10 70.667 10 110c0 65.333 -11.667 119.666 -35 162.999c-31.333 54 -76 81 -134 81c-22 0 -56.667 -11 -104 -33zM249 353.001c-44.667 0 -80.332 -24.333 -106.999 -73
c-22.667 -41.333 -34 -86 -34 -134c0 -90 29 -135 87 -135c80.667 0 133.667 93.667 159 281c-10.667 12 -19.334 21.167 -26.001 27.5s-13 11.833 -19 16.5c-16 11.333 -36 17 -60 17z" />
    <glyph glyph-name="ntilde" unicode="&#xf1;" 
d="M429 0h-135l-104 334v-334h-153v700h136l103 -331v331h153v-700zM251 757l-70 54l-69 -49l-44 40l134 96l72 -54l70 51l46 -41z" />
    <glyph glyph-name="ograve" unicode="&#xf2;" 
d="M428 102l-103 -102h-180l-107 102v496l107 102h173l110 -102v-496zM201 567v-434h65v434h-65zM346 785l-34 -50l-175 78l-20 45l39 63l49 -4z" />
    <glyph glyph-name="oacute" unicode="&#xf3;" 
d="M428 102l-103 -102h-180l-107 102v496l107 102h173l110 -102v-496zM201 567v-434h65v434h-65zM305 921l41 -63l-21 -45l-175 -78l-33 50l140 132z" />
    <glyph glyph-name="ocircumflex" unicode="&#xf4;" 
d="M428 102l-103 -102h-180l-107 102v496l107 102h173l110 -102v-496zM201 567v-434h65v434h-65zM238 806l-153 -49l-27 50l106 91h146l107 -91l-28 -50z" />
    <glyph glyph-name="otilde" unicode="&#xf5;" 
d="M428 102l-103 -102h-180l-107 102v496l107 102h173l110 -102v-496zM201 567v-434h65v434h-65zM251 757l-70 54l-69 -49l-44 40l134 96l72 -54l70 51l46 -41z" />
    <glyph glyph-name="odieresis" unicode="&#xf6;" 
d="M428 102l-103 -102h-180l-107 102v496l107 102h173l110 -102v-496zM201 567v-434h65v434h-65zM384 765h-129v126h129v-126zM216 765h-128v126h128v-126z" />
    <glyph glyph-name="divide" unicode="&#xf7;" horiz-adv-x="532" 
d="M8 285h514v-55h-514v55zM263 446c14 0 26.167 -6 36.5 -18s15.5 -24.667 15.5 -38c0 -16 -5.66699 -29.167 -17 -39.5s-25 -15.5 -41 -15.5c-13.333 0 -26 6 -38 18c-10 12 -15 25.333 -15 40c0 14 6 26.667 18 38c12 10 25.667 15 41 15zM262 179
c14.667 0 27 -5.83496 37 -17.502s15 -24.5 15 -38.5c0 -15.333 -5.16699 -28.166 -15.5 -38.499s-23.833 -15.5 -40.5 -15.5c-15.333 0 -28.333 5.83301 -39 17.5s-16 24.834 -16 39.501c0 14 6 26.667 18 38c12 10 25.667 15 41 15z" />
    <glyph glyph-name="ugrave" unicode="&#xf9;" 
d="M429 102l-104 -102h-181l-108 102v598h163v-567h68v567h162v-598zM346 785l-34 -50l-175 78l-20 45l39 63l49 -4z" />
    <glyph glyph-name="uacute" unicode="&#xfa;" 
d="M429 102l-104 -102h-181l-108 102v598h163v-567h68v567h162v-598zM305 921l41 -63l-21 -45l-175 -78l-33 50l140 132z" />
    <glyph glyph-name="ucircumflex" unicode="&#xfb;" 
d="M429 102l-104 -102h-181l-108 102v598h163v-567h68v567h162v-598zM238 806l-153 -49l-27 50l106 91h146l107 -91l-28 -50z" />
    <glyph glyph-name="udieresis" unicode="&#xfc;" 
d="M429 102l-104 -102h-181l-108 102v598h163v-567h68v567h162v-598zM384 765h-129v126h129v-126zM216 765h-128v126h128v-126z" />
    <glyph glyph-name="yacute" unicode="&#xfd;" horiz-adv-x="426" 
d="M294 0l-162.999 0.00195312l1 218c0 65.333 -17 147.666 -51 246.999l-88 235h163l57 -249l58 249h162l-48 -138l-50 -138c-10.667 -30.667 -19.334 -59.5 -26.001 -86.5s-10 -50.833 -10 -71.5c-1.33301 -43.333 -2.5 -90.333 -3.5 -141s-1.5 -92.334 -1.5 -125.001z
M276.001 921.002l41 -63l-21 -45l-176 -78l-33 50l140 132z" />
    <glyph glyph-name="ydieresis" unicode="&#xff;" horiz-adv-x="426" 
d="M294 0l-162.999 0.00195312l1 218c0 65.333 -17 147.666 -51 246.999l-88 235h163l57 -249l58 249h162l-48 -138l-50 -138c-10.667 -30.667 -19.334 -59.5 -26.001 -86.5s-10 -50.833 -10 -71.5c-1.33301 -43.333 -2.5 -90.333 -3.5 -141s-1.5 -92.334 -1.5 -125.001z
M364.001 765.002h-128v126h128v-126zM197.001 765.002h-129v126h129v-126z" />
    <glyph glyph-name="c274" unicode="&#x112;" 
d="M389 789h-321v77h321v-77z" />
    <glyph glyph-name="mu1" unicode="&#x113;" horiz-adv-x="559" 
d="M143 489l0.000976562 -323.998c0 -75.333 31.667 -113 95 -113c14 0 35 9 63 27s42 34 42 48v362h85v-374c0 -20 4.16699 -38.5 12.5 -55.5s21.166 -25.5 38.499 -25.5c16 0 28.333 7.66699 37 23l15 44h21c-18 -78 -59 -117 -123 -117c-44 0 -72.333 31.333 -85 94
c-44 -63.333 -97.333 -95 -160 -95c-15.333 0 -31.333 5.33301 -48 16l-42 31l1 -20c0 -18 5 -44.833 15 -80.5s15 -62.834 15 -81.501c0 -14.667 -4.16699 -29.167 -12.5 -43.5s-19.833 -21.5 -34.5 -21.5c-14 0 -25.5 6.66699 -34.5 20s-13.5 27.666 -13.5 42.999
s2 33 6 53s10.667 44.333 20 73l4 171l-1 173l-2 173h86z" />
    <glyph glyph-name="c276" unicode="&#x114;" horiz-adv-x="173" 
d="M174 311h-175v94h175v-94z" />
    <glyph glyph-name="c278" unicode="&#x116;" horiz-adv-x="799" 
d="M687 4c0 -30 8.33301 -51.334 25 -64.001c14.667 -9.33301 38 -14 70 -14v-24h-300l-1 23c32 0 55 5 69 15c16.667 12.667 25 34 25 64v674h-346l-1 -674c0 -30 8.33301 -51.333 25 -64c14.667 -9.33301 38 -14 70 -14v-24h-301l1 24c32 0 55.667 5.33301 71 16
s23 31.334 23 62.001v609c0 64 -31 96 -93 96v24h755l-1 -24c-60.667 0 -91 -32 -91 -96v-609z" />
    <glyph glyph-name="c279" unicode="&#x117;" horiz-adv-x="521" 
d="M494 430h-159v137h-67v-434h67v142h159v-173l-107 -102h-166l-116 102v496l106 102h176l107 -102v-168zM394 309h-367l36 85h367z" />
    <glyph glyph-name="orthogonal" unicode="&#x118;" horiz-adv-x="582" 
d="M86 225c-23.333 40.667 -34.999 82.335 -34.999 125.002c0 24 2.66699 46 8 66s14.333 40.333 27 61l-43 42l79 79l43 -43c42 24.667 85.667 37 131 37c44 0 85.333 -12.333 124 -37l43 43l77 -79l-44 -42c11.333 -18.667 20.333 -38.834 27 -60.501
s10 -43.834 10 -66.501c0 -47.333 -12 -89 -36 -125l43 -43l-77 -78l-43 43c-42.667 -25.333 -84.334 -38 -125.001 -38c-48 0 -91.333 12.667 -130 38l-43 -43l-79 78zM412.001 350.001c0 32 -11.832 59.833 -35.499 83.5s-51.834 35.5 -84.501 35.5
s-60.5 -11.5 -83.5 -34.5s-34.5 -50.833 -34.5 -83.5s11.667 -60.667 35 -84s51.333 -35 84 -35s60.667 11.5 84 34.5s35 50.833 35 83.5z" />
    <glyph glyph-name="Lslash" unicode="&#x141;" horiz-adv-x="387" 
d="M236 477l124 97v-104l-124 -99v-238h146v-133h-309v244l-68 -53v104l68 54v351h163v-223z" />
    <glyph glyph-name="lslash" unicode="&#x142;" horiz-adv-x="446" 
d="M305 700l109 -102v-125h-158v94h-64v-141l116 -9l111 -102v-213l-106 -102h-179l-105 102v124h163v-93h64v145l-114 8l-113 102v210l106 102h170zM407 848l-107 -91h-146l-106 91l27 50l153 -49l151 49z" />
    <glyph glyph-name="OE" unicode="&#x152;" horiz-adv-x="582" 
d="M560 567h-137v-131h119v-133h-119v-170h145v-133h-427l-106 102v496l106 102h419v-133zM198 567v-434h66v434h-66z" />
    <glyph glyph-name="oe" unicode="&#x153;" horiz-adv-x="582" 
d="M560 567h-137v-131h119v-133h-119v-170h145v-133h-427l-106 102v496l106 102h419v-133zM198 567v-434h66v434h-66z" />
    <glyph glyph-name="Scaron" unicode="&#x160;" horiz-adv-x="446" 
d="M305 700l109 -102v-125h-158v94h-64v-141l116 -9l111 -102v-213l-106 -102h-179l-105 102v124h163v-93h64v145l-114 8l-113 102v210l106 102h170zM378 848l-107 -91h-146l-106 91l27 50l153 -49l151 49z" />
    <glyph glyph-name="Ydieresis" unicode="&#x178;" horiz-adv-x="426" 
d="M294 0l-162.999 0.00195312l1 218c0 65.333 -17 147.666 -51 246.999l-88 235h163l57 -249l58 249h162l-48 -138l-50 -138c-10.667 -30.667 -19.334 -59.5 -26.001 -86.5s-10 -50.833 -10 -71.5c-1.33301 -43.333 -2.5 -90.333 -3.5 -141s-1.5 -92.334 -1.5 -125.001z
M364.001 765.002h-128v126h128v-126zM197.001 765.002h-129v126h129v-126z" />
    <glyph glyph-name="Zcaron" unicode="&#x17d;" horiz-adv-x="426" 
d="M294 0l-162.999 0.00195312l1 218c0 65.333 -17 147.666 -51 246.999l-88 235h163l57 -249l58 249h162l-48 -138l-50 -138c-10.667 -30.667 -19.334 -59.5 -26.001 -86.5s-10 -50.833 -10 -71.5c-1.33301 -43.333 -2.5 -90.333 -3.5 -141s-1.5 -92.334 -1.5 -125.001z
M286.001 921.002l40 -63l-21 -45l-175 -78l-33 50l140 132z" />
    <glyph glyph-name="zcaron" unicode="&#x17e;" horiz-adv-x="426" 
d="M45 700h162v-107h105l109 -102v-262l-109 -99h-105v-130h-162v700zM207 459v-195h58v195h-58z" />
    <glyph glyph-name="florin" unicode="&#x192;" horiz-adv-x="265" 
d="M450 567h-95l-18 -113h101v-86h-114l-43 -273l-95 -95h-162v132h105l36 236h-94v86h108l25 153l94 93h152v-133zM56 -104c-13.333 0 -25.998 6.16797 -37.998 18.501s-18 25.833 -18 40.5c1.33301 11.333 5.66602 21.333 12.999 30c9.33301 9.33301 19.333 14 30 14
c16 0 33.667 -11 53 -33c16.667 2 25 34 25 96l-4 265l-3 267c0 199.333 35 299 105 299c15.333 0 30 -5.16699 44 -15.5s21 -23.5 21 -39.5c0 -12.667 -5.33301 -23.334 -16 -32.001c-12 -8 -23.667 -12 -35 -12c-9.33301 0 -18.833 4 -28.5 12s-16.834 12 -21.501 12
l-17 -21c13.333 -158 20 -305.667 20 -443c0 -60.667 -1 -114.5 -3 -161.5s-4.33301 -81.833 -7 -104.5c-18 -128 -58 -192 -120 -192z" />
    <glyph glyph-name="circumflex" unicode="&#x2c6;" horiz-adv-x="485" 
d="M247 806l-152 -49l-27 50l106 91h146l107 -91l-28 -50z" />
    <glyph glyph-name="caron" unicode="&#x2c7;" horiz-adv-x="485" 
d="M427 848l-107 -91h-146l-106 91l27 50l152 -49l152 49z" />
    <glyph glyph-name="breve" unicode="&#x2d8;" 
d="M389 823l-60 -69h-199l-62 69v77h84v-68h154v68h83v-77z" />
    <glyph glyph-name="dotaccent" unicode="&#x2d9;" horiz-adv-x="310" 
d="M233 760h-165v136h165v-136z" />
    <glyph glyph-name="ring" unicode="&#x2da;" horiz-adv-x="310" 
d="M246 781l-45 -45h-88l-45 45v91l45 44h88l45 -44v-91zM119 864v-75h77v75h-77z" />
    <glyph glyph-name="ogonek" unicode="&#x2db;" horiz-adv-x="271" 
d="M218 -87l53 89h78l-57 -95v-44h55v-68h-93l-36 37v81z" />
    <glyph glyph-name="tilde" unicode="&#x2dc;" 
d="M251 757l-70 54l-69 -49l-44 40l134 96l72 -54l70 51l46 -41z" />
    <glyph glyph-name="endash" unicode="&#x2013;" horiz-adv-x="485" 
d="M487 311h-489v94h489v-94z" />
    <glyph glyph-name="emdash" unicode="&#x2014;" horiz-adv-x="972" 
d="M973 311h-975v94h975v-94z" />
    <glyph glyph-name="quoteleft" unicode="&#x2018;" horiz-adv-x="212" 
d="M185 472h-158v106l90 136l54 -38l-49 -69h63v-135z" />
    <glyph glyph-name="quoteright" unicode="&#x2019;" horiz-adv-x="212" 
d="M27 700h158v-105l-88 -137l-56 38l51 69h-65v135z" />
    <glyph glyph-name="quotesinglbase" unicode="&#x201a;" horiz-adv-x="212" 
d="M27 135h158v-106l-88 -135l-56 37l51 69h-65v135z" />
    <glyph glyph-name="quotedblleft" unicode="&#x201c;" horiz-adv-x="426" 
d="M396 472h-157v106l89 136l54 -38l-49 -69h63v-135zM187 472h-158v106l90 136l54 -38l-49 -69h63v-135z" />
    <glyph glyph-name="quotedblright" unicode="&#x201d;" horiz-adv-x="426" 
d="M239 700h157v-105l-88 -137l-55 38l50 69h-64v135zM29 700h158v-105l-88 -137l-56 38l50 69h-64v135z" />
    <glyph glyph-name="quotedblbase" unicode="&#x201e;" horiz-adv-x="426" 
d="M239 135h157v-106l-88 -135l-55 37l50 69h-64v135zM29 135h158v-106l-88 -135l-56 37l50 69h-64v135z" />
    <glyph glyph-name="daggerdbl" unicode="&#x2021;" horiz-adv-x="753" 
d="M726 581l-28.998 -61.002c-55.333 68 -132 102 -230 102c-60.667 0 -114.334 -17.667 -161.001 -53s-78.334 -81 -95.001 -137h445l-30 -63h-429l-2 -33l2 -30h400l-30 -63h-356c18 -59.333 50.667 -106.166 98 -140.499s103.333 -51.5 168 -51.5
c91.333 0 164.666 33 219.999 99v-85c-64.667 -51.333 -139.667 -77 -225 -77c-81.333 0 -152.5 22.833 -213.5 68.5s-100.5 107.834 -118.5 186.501h-113l30 63h71l-1 31l1 32h-101l30 63h83c18 78 57.833 139.667 119.5 185s134.167 68 217.5 68
c48 0 94.833 -9.16699 140.5 -27.5s81.834 -43.833 108.501 -76.5z" />
    <glyph glyph-name="bullet" unicode="&#x2022;" horiz-adv-x="446" 
d="M324 315h-203v170h203v-170z" />
    <glyph glyph-name="ellipsis" unicode="&#x2026;" horiz-adv-x="972" 
d="M242 0h-162v136h162v-136zM567 0h-163v136h163v-136zM891 0h-163v136h163v-136z" />
    <glyph glyph-name="perthousand" unicode="&#x2030;" horiz-adv-x="1205" 
d="M362 0h-75l225 700h71zM334 330l-69 -67h-125l-69 67v301l69 69h125l69 -69v-301zM799 67l-68 -67h-126l-69 67v301l69 69h126l68 -69v-301zM1134 67l-69 -67h-125l-69 67v301l69 69h125l69 -69v-301zM179 608v-254h47v254h-47zM644 346v-254h47v254h-47zM979 346v-254
h47v254h-47z" />
    <glyph glyph-name="guilsinglleft" unicode="&#x2039;" horiz-adv-x="251" 
d="M197 545l-50 -188c0 -4 4 -21.167 12 -51.5s20.667 -75.5 38 -135.5l-51 -29l-91 141v152l91 141z" />
    <glyph glyph-name="guilsinglright" unicode="&#x203a;" horiz-adv-x="251" 
d="M197 434v-152l-92 -141l-51 29l36.5 131c8.33301 31.333 12.833 50 13.5 56l-50 188l51 30z" />
    <glyph glyph-name="uni20AC" unicode="&#x20ac;" horiz-adv-x="521" 
d="M394 309h-126v-176h67v142h159v-173l-107 -102h-166l-116 102v207h-78l36 85h42v204l106 102h176l107 -102v-168h-159v137h-67v-173h162z" />
    <glyph glyph-name="trademark" unicode="&#x2122;" horiz-adv-x="855" 
d="M846 305h-88v313l-114 -313h-52l-114 313v-313h-88v395h140l88 -231l88 231h140v-395zM345 622h-120v-317h-97v317h-119v78h336v-78z" />
    <glyph glyph-name="fraction" unicode="&#x2215;" horiz-adv-x="76" 
d="M-152 0l309 700h122l-310 -700h-121z" />
    <glyph glyph-name="NULL" horiz-adv-x="0" 
 />
    <glyph glyph-name="nonmarkingreturn" horiz-adv-x="271" 
 />
    </font>
</defs>
</svg>
